<?xml version="1.0" encoding="UTF-8"?>
<svg id="Layer_1" xmlns="http://www.w3.org/2000/svg" version="1.1" viewBox="0 0 139.12 139.12">
  <!-- Generator: Adobe Illustrator 30.5.1, SVG Export Plug-In . SVG Version: 2.1.4 Build 3)  -->
  <path d="M74.23,102.53h-36.39c-.6,0-1.08-.48-1.08-1.08v-36.39c0-1.21-.98-2.2-2.2-2.2h-6.75c-1.21,0-2.2.98-2.2,2.2v47.5h0s.01.08.02.12c.04.66.4,1,1.1,1h47.5c1.21,0,2.2-.98,2.2-2.2v-6.75c0-1.21-.98-2.2-2.2-2.2Z"/>
  <path d="M64.88,36.59h36.39c.6,0,1.08.48,1.08,1.08v36.39c0,1.21.98,2.2,2.2,2.2h6.75c1.21,0,2.2-.98,2.2-2.2V26.56h0s-.01-.08-.02-.12c-.04-.66-.4-1-1.1-1h-47.5c-1.21,0-2.2.98-2.2,2.2v6.75c0,1.21.98,2.2,2.2,2.2Z"/>
</svg>