<?xml version="1.0" encoding="UTF-8"?>
<svg id="Layer_1" xmlns="http://www.w3.org/2000/svg" version="1.1" viewBox="0 0 315.27 113.95">
  <!-- Generator: Adobe Illustrator 30.5.1, SVG Export Plug-In . SVG Version: 2.1.4 Build 3)  -->
  <path d="M32.49,31.66c-2.1,0-3.86-.64-5.27-1.94-1.41-1.29-2.12-2.99-2.12-5.09s.71-3.8,2.12-5.09,3.17-1.94,5.27-1.94,3.86.65,5.27,1.94,2.12,2.99,2.12,5.09-.71,3.8-2.12,5.09-3.17,1.94-5.27,1.94ZM26.19,41.93c0-.84.42-1.26,1.26-1.26h10.36c.84,0,1.26.42,1.26,1.26v47.92c0,.9-.42,1.35-1.26,1.35h-10.36c-.84,0-1.26-.45-1.26-1.35v-47.92Z"/>
  <path d="M46.75,91.2c-.84,0-1.26-.42-1.26-1.26v-48.01c0-.84.42-1.26,1.26-1.26h9.19c.9,0,1.35.42,1.35,1.26l.27,6.03c1.8-2.7,4.14-4.76,7.03-6.17,2.88-1.41,5.88-2.12,9.01-2.12,3.78,0,7.04.8,9.77,2.39,2.73,1.59,4.76,3.89,6.08,6.89,1.86-3.06,4.34-5.37,7.43-6.94,3.09-1.56,6.38-2.34,9.86-2.34,5.52,0,9.86,1.65,13.02,4.95,3.15,3.3,4.73,7.87,4.73,13.69v31.62c0,.84-.42,1.26-1.26,1.26h-10.18c-.84,0-1.26-.42-1.26-1.26v-26.48c0-4.2-.77-7.3-2.3-9.28s-3.77-2.97-6.71-2.97c-1.98,0-3.84.51-5.59,1.53-1.74,1.02-3.15,2.58-4.23,4.68s-1.62,4.77-1.62,8.02v24.5c0,.84-.42,1.26-1.26,1.26h-10.18c-.84,0-1.26-.42-1.26-1.26v-26.48c0-4.2-.77-7.3-2.3-9.28s-3.77-2.97-6.71-2.97c-1.98,0-3.86.51-5.63,1.53s-3.2,2.58-4.28,4.68-1.62,4.77-1.62,8.02v24.5c0,.84-.42,1.26-1.26,1.26h-10.09,0Z"/>
  <path d="M155.59,113.45c-5.4,0-10.28-1.22-14.64-3.65-4.35-2.43-7.52-6.05-9.5-10.85-.12-.36-.18-.57-.18-.63,0-.48.3-.81.9-.99l8.2-2.97c.24-.12.42-.18.54-.18.42,0,.78.27,1.08.81,1.2,2.1,2.85,3.78,4.95,5.04,2.1,1.26,4.83,1.89,8.2,1.89,2.64,0,5.06-.41,7.25-1.22s3.95-2.12,5.27-3.92c1.32-1.8,1.98-4.17,1.98-7.12v-4.59c-1.86,2.22-4.14,3.96-6.85,5.22-2.7,1.26-5.74,1.89-9.1,1.89-4.8,0-8.98-1.11-12.52-3.33-3.54-2.22-6.28-5.3-8.2-9.23-1.92-3.93-2.88-8.48-2.88-13.65s.96-9.8,2.88-13.74c1.92-3.93,4.65-7.01,8.2-9.23,3.54-2.22,7.71-3.33,12.52-3.33,3.54,0,6.72.71,9.55,2.12,2.82,1.41,5.13,3.35,6.94,5.81l.36-5.67c0-.84.45-1.26,1.35-1.26h9.1c.9,0,1.35.42,1.35,1.26v46.48c0,5.34-1.13,9.88-3.38,13.6s-5.39,6.56-9.41,8.51c-4.02,1.95-8.68,2.93-13.96,2.93h0ZM143.16,65.98c0,4.32,1.28,7.85,3.83,10.58s5.84,4.1,9.86,4.1,7.39-1.37,9.91-4.1c2.52-2.73,3.78-6.26,3.78-10.58s-1.26-7.94-3.78-10.67c-2.52-2.73-5.83-4.1-9.91-4.1s-7.31,1.37-9.86,4.1c-2.55,2.73-3.83,6.29-3.83,10.67Z"/>
  <path d="M35.78,105.75H9.01c-.44,0-.8-.36-.8-.8v-26.77c0-.89-.72-1.62-1.62-1.62H1.62c-.89,0-1.62.72-1.62,1.62v34.95h0s.01.06.01.09c.03.48.29.73.81.73h34.95c.89,0,1.62-.72,1.62-1.62v-4.97c0-.89-.72-1.62-1.62-1.62h0Z"/>
  <path d="M279.49,8.2h26.77c.44,0,.8.36.8.8v26.77c0,.89.72,1.62,1.62,1.62h4.97c.89,0,1.62-.72,1.62-1.62V.82h0s-.01-.06-.01-.09c-.03-.48-.29-.73-.81-.73h-34.95c-.89,0-1.62.72-1.62,1.62v4.97c0,.89.72,1.62,1.62,1.62h0Z"/>
  <g>
    <path d="M252.11,33.38c2.16,0,3.96-.69,5.4-2.07s2.16-3.12,2.16-5.22-.72-3.93-2.16-5.31-3.24-2.07-5.4-2.07-3.87.69-5.31,2.07-2.16,3.15-2.16,5.31.72,3.84,2.16,5.22,3.21,2.07,5.31,2.07Z"/>
    <path d="M298.68,81.02l-7.66-3.42c-.72-.36-1.29-.15-1.71.63-.96,1.62-2.22,2.43-3.78,2.43-3.78,0-5.67-2.73-5.67-8.2v-20.45h11.98c.84,0,1.26-.42,1.26-1.26v-8.83c0-.84-.42-1.26-1.26-1.26h-11.98v-13.6c0-.84-.42-1.26-1.26-1.26h-10.18c-.84,0-1.26.42-1.26,1.26v13.6h-42.25v-3.42c0-5.58,2.01-8.38,6.03-8.38,1.98,0,3.78.57,5.4,1.71.24.24.51.36.81.36.42,0,.72-.21.9-.63l4.41-6.85c.12-.18.18-.42.18-.72,0-.42-.12-.75-.36-.99-3.18-2.94-7.3-4.41-12.34-4.41-5.4,0-9.71,1.82-12.93,5.45-3.21,3.63-4.82,8.51-4.82,14.64v3.24h-7.03c-.84,0-1.26.42-1.26,1.26v8.83c0,.84.42,1.26,1.26,1.26h7.03v37.92c0,.84.42,1.26,1.26,1.26h10.18c.84,0,1.26-.42,1.26-1.26v-37.92h20.9v37.92c0,.84.42,1.26,1.26,1.26h10.09c.9,0,1.35-.42,1.35-1.26v-37.92h8.65v19.64c0,6.84,1.46,11.98,4.37,15.4,2.91,3.42,7.1,5.13,12.57,5.13,2.88,0,5.64-.69,8.29-2.07,2.64-1.38,4.86-3.72,6.67-7.03.24-.3.36-.63.36-.99,0-.42-.24-.78-.72-1.08h0Z"/>
  </g>
</svg>